<svg width="1000" height="1056" viewBox="0 0 1000 1056" fill="none" xmlns="http://www.w3.org/2000/svg">
<path d="M156.644 342.096H308.321V208.196L374.495 142.022H842.192V0H306.841L156.644 147.219V342.096Z" fill="white"/>
<path d="M842.192 342.096H690.516V475.995L624.341 542.17H156.644V684.191H691.996L842.192 536.972V342.096Z" fill="white"/>
<path d="M0.0176184 1012.58V1011.15L14.2885 1009.5V1010.92C14.2885 1034.71 23.0801 1042.8 49.719 1042.8H79.4412C105.834 1042.8 114.872 1034.71 114.872 1010.45V1007.37C114.872 988.108 108.459 981.924 84.9029 978.594L40.9098 972.181C11.1877 967.9 0.951392 958.386 0.951392 932.945V926.761C0.951392 896.087 14.4999 883.473 47.5696 883.473H81.344C114.396 883.473 127.962 896.07 127.962 926.285V927.712L113.691 929.386V927.959C113.691 904.174 104.9 896.087 78.2608 896.087H50.9171C24.2781 896.087 15.2399 904.403 15.2399 928.435V930.337C15.2399 949.841 21.4239 955.303 45.4378 958.879L89.4308 965.292C119.4 969.574 129.143 979.317 129.143 1004.78V1012.16C129.143 1042.83 115.594 1055.45 82.5244 1055.45H46.6182C13.5661 1055.45 0 1042.85 0 1012.63L0.0176184 1012.58Z" fill="white"/>
<path d="M264.697 1053.02L263.517 1040.17C258.284 1050.39 248.065 1055.39 231.892 1055.39H199.544C174.579 1055.39 161.964 1043.5 161.964 1019.96V1011.65C161.964 988.109 174.086 976.693 199.544 976.693H255.43C258.055 976.693 260.187 976.922 261.614 977.415V954.352C261.614 936.276 253.298 928.436 233.794 928.436H205.253C186.225 928.436 177.433 936.294 177.433 953.877V955.304L163.885 953.877C163.656 953.401 163.656 953.154 163.656 952.203C163.656 928.665 176.253 916.772 201.465 916.772H237.847C262.812 916.772 275.427 928.665 275.427 952.203V1028.54L277.083 1053.03H264.715L264.697 1053.02ZM261.614 1018.06V988.814C260.433 988.585 258.531 988.338 256.381 988.338H203.35C184.093 988.338 175.531 996.178 175.531 1014.03V1018.06C175.531 1035.89 184.093 1043.75 203.35 1043.75H233.794C253.298 1043.75 261.614 1035.91 261.614 1018.06Z" fill="white"/>
<path d="M343.642 930.779V1017.81C343.642 1035.64 352.205 1043.73 371.462 1043.73H399.757V1055.38H367.656C342.444 1055.38 329.847 1043.48 329.847 1019.95V930.761H296.795V919.115H329.847V893.428H343.642V919.115H399.757V930.761H343.642V930.779Z" fill="white"/>
<path d="M598.105 919.133L557.917 1053.01H539.841L504.41 932.452L468.98 1053.01H450.903L410.716 919.133H424.511L459.942 1040.17L495.372 919.133H513.449L548.879 1040.17L584.31 919.133H598.105Z" fill="white"/>
<path d="M718.671 1053.02L717.473 1040.17C712.24 1050.39 702.021 1055.39 685.848 1055.39H653.5C628.535 1055.39 615.92 1043.5 615.92 1019.96V1011.65C615.92 988.109 628.042 976.693 653.5 976.693H709.386C712.011 976.693 714.143 976.922 715.57 977.415V954.352C715.57 936.276 707.254 928.436 687.751 928.436H659.209C640.181 928.436 631.389 936.294 631.389 953.877V955.304L617.841 953.877C617.612 953.401 617.612 953.154 617.612 952.203C617.612 928.665 630.209 916.772 655.421 916.772H691.803C716.768 916.772 729.383 928.665 729.383 952.203V1028.54L731.039 1053.03H718.671V1053.02ZM715.588 1018.06V988.814C714.407 988.585 712.504 988.338 710.355 988.338H657.324C638.067 988.338 629.504 996.178 629.504 1014.03V1018.06C629.504 1035.89 638.067 1043.75 657.324 1043.75H687.768C707.272 1043.75 715.588 1035.91 715.588 1018.06Z" fill="white"/>
<path d="M869.921 919.133L819.497 1053.01H801.191L750.768 919.133H765.038L810.459 1041.12L855.65 919.133H869.921Z" fill="white"/>
<path d="M899.892 989.993V1017.81C899.892 1035.64 908.455 1043.73 927.712 1043.73H958.385C977.413 1043.73 986.205 1035.89 986.205 1018.29V1016.86L999.753 1018.29C1000 1018.76 1000 1019.01 1000 1019.94C1000 1043.48 987.403 1055.38 962.191 1055.38H923.906C898.694 1055.38 886.097 1043.48 886.097 1019.94V952.167C886.097 928.629 898.694 916.736 923.906 916.736H962.191C987.403 916.736 1000 928.629 1000 952.167V989.976H899.875L899.892 989.993ZM899.892 954.316V978.33H986.222V954.316C986.222 936.24 977.66 928.4 958.403 928.4H927.729C908.472 928.4 899.91 936.257 899.91 954.316H899.892Z" fill="white"/>
</svg>
