<svg width="1001" height="1199" viewBox="0 0 1001 1199" fill="none" xmlns="http://www.w3.org/2000/svg">
<path d="M157.961 342.551H309.549V208.729L375.685 142.593H843.11V0.654297H308.07L157.961 147.788V342.551Z" fill="white"/>
<path d="M843.11 342.551H691.521V476.372L625.385 542.508H157.961V684.447H693L843.11 537.314V342.551Z" fill="white"/>
<path d="M1.42557 1012.65V1011.22L15.6881 1009.56V1010.99C15.6881 1034.76 24.4746 1042.84 51.098 1042.84H80.8029C107.18 1042.84 116.213 1034.76 116.213 1010.51V1007.43C116.213 988.188 109.803 982.007 86.2614 978.679L42.294 972.27C12.5891 967.991 2.3588 958.483 2.3588 933.057V926.876C2.3588 896.221 15.8994 883.613 48.9498 883.613H82.7045C115.737 883.613 129.296 896.203 129.296 926.401V927.827L115.033 929.5V928.074C115.033 904.303 106.247 896.221 79.6231 896.221H52.2954C25.6719 896.221 16.639 904.532 16.639 928.549V930.451C16.639 949.943 22.8194 955.401 46.8192 958.976L90.7866 965.385C120.738 969.664 130.475 979.401 130.475 1004.84V1012.22C130.475 1042.88 116.935 1055.49 83.8843 1055.49H47.999C14.9662 1055.49 1.40796 1042.9 1.40796 1012.7L1.42557 1012.65Z" fill="white"/>
<path d="M265.95 1053.06L264.771 1040.22C259.541 1050.43 249.328 1055.44 233.164 1055.44H200.836C175.885 1055.44 163.278 1043.55 163.278 1020.03V1011.71C163.278 988.19 175.392 976.78 200.836 976.78H256.689C259.312 976.78 261.443 977.009 262.869 977.502V954.453C262.869 936.387 254.558 928.551 235.066 928.551H206.541C187.524 928.551 178.737 936.404 178.737 953.977V955.403L165.197 953.977C164.968 953.502 164.968 953.255 164.968 952.304C164.968 928.78 177.558 916.895 202.755 916.895H239.116C264.066 916.895 276.674 928.78 276.674 952.304V1028.6L278.329 1053.08H265.968L265.95 1053.06ZM262.869 1018.12V988.894C261.689 988.665 259.788 988.419 257.639 988.419H204.639C185.393 988.419 176.836 996.254 176.836 1014.09V1018.12C176.836 1035.94 185.393 1043.8 204.639 1043.8H235.066C254.558 1043.8 262.869 1035.96 262.869 1018.12Z" fill="white"/>
<path d="M344.85 930.89V1017.87C344.85 1035.69 353.407 1043.78 372.653 1043.78H400.932V1055.41H368.85C343.653 1055.41 331.063 1043.53 331.063 1020V930.872H298.03V919.233H331.063V893.561H344.85V919.233H400.932V930.872H344.85V930.89Z" fill="white"/>
<path d="M599.164 919.252L559 1053.06H540.934L505.524 932.564L470.114 1053.06H452.048L411.884 919.252H425.672L461.081 1040.22L496.491 919.252H514.557L549.967 1040.22L585.377 919.252H599.164Z" fill="white"/>
<path d="M719.66 1053.06L718.462 1040.22C713.233 1050.43 703.02 1055.44 686.856 1055.44H654.527C629.577 1055.44 616.969 1043.55 616.969 1020.03V1011.71C616.969 988.19 629.084 976.78 654.527 976.78H710.38C713.004 976.78 715.134 977.009 716.561 977.502V954.453C716.561 936.387 708.25 928.551 688.757 928.551H660.232C641.216 928.551 632.429 936.404 632.429 953.977V955.403L618.889 953.977C618.66 953.502 618.66 953.255 618.66 952.304C618.66 928.78 631.249 916.895 656.447 916.895H692.807C717.758 916.895 730.365 928.78 730.365 952.304V1028.6L732.021 1053.08H719.66V1053.06ZM716.578 1018.12V988.894C715.398 988.665 713.497 988.419 711.349 988.419H658.348C639.103 988.419 630.545 996.254 630.545 1014.09V1018.12C630.545 1035.94 639.103 1043.8 658.348 1043.8H688.775C708.267 1043.8 716.578 1035.96 716.578 1018.12Z" fill="white"/>
<path d="M870.822 919.252L820.427 1053.06H802.132L751.738 919.252H766.001L811.394 1041.17L856.559 919.252H870.822Z" fill="white"/>
<path d="M900.776 990.07V1017.87C900.776 1035.69 909.333 1043.77 928.579 1043.77H959.235C978.251 1043.77 987.038 1035.94 987.038 1018.35V1016.92L1000.58 1018.35C1000.82 1018.82 1000.83 1019.07 1000.83 1020C1000.83 1043.53 988.235 1055.41 963.038 1055.41H924.776C899.578 1055.41 886.989 1043.53 886.989 1020V952.265C886.989 928.741 899.578 916.855 924.776 916.855H963.038C988.235 916.855 1000.83 928.741 1000.83 952.265V990.052H900.758L900.776 990.07ZM900.776 954.413V978.413H987.055V954.413C987.055 936.348 978.498 928.512 959.252 928.512H928.597C909.351 928.512 900.793 936.365 900.793 954.413H900.776Z" fill="white"/>
<path d="M927.521 1185.85C915.692 1185.85 910.571 1180.99 910.571 1169.87V1137.73C910.571 1126.61 915.692 1121.76 927.521 1121.76H942.618C954.447 1121.76 959.568 1126.61 959.568 1137.56V1138.26L951.181 1139.32V1138.71C951.181 1131.47 948.533 1128.99 940.499 1128.99H929.64C921.607 1128.99 918.958 1131.47 918.958 1138.88V1168.72C918.958 1176.05 921.607 1178.61 929.64 1178.61H940.499C948.533 1178.61 951.181 1168.9V1168.28L959.568 1169.34V1170.05C959.568 1180.99 954.447 1185.85 942.618 1185.85H927.521Z" fill="white"/>
<path d="M838.671 1122.64H847.058V1184.96H838.583L807.243 1136.23V1184.96H798.856V1122.64H807.243L838.671 1171.46V1122.64Z" fill="white"/>
<path d="M726.097 1184.96V1122.64H734.484V1184.96H726.097Z" fill="white"/>
<path d="M562.049 1185.85C550.219 1185.85 545.099 1180.99 545.099 1170.05V1169.34L553.486 1168.28V1168.9C553.486 1176.05 556.134 1178.61 564.168 1178.61H575.115C583.149 1178.61 585.885 1176.05 585.885 1168.72V1167.4C585.885 1161.48 583.855 1159.72 576.086 1158.57L560.372 1156.27C549.337 1154.68 545.452 1150.98 545.452 1141.71V1137.73C545.452 1126.61 550.573 1121.76 562.402 1121.76H576.881C588.71 1121.76 593.919 1126.61 593.919 1137.56C593.919 1138 593.919 1138.09 593.831 1138.26L585.532 1139.32V1138.71C585.532 1131.47 582.795 1128.99 574.762 1128.99H564.609C556.576 1128.99 553.839 1131.56 553.839 1138.88V1139.77C553.839 1145.77 555.693 1147.36 563.638 1148.59L579.441 1150.89C590.476 1152.48 594.272 1156.19 594.272 1165.54V1169.87C594.272 1180.99 589.063 1185.85 577.322 1185.85H562.049Z" fill="white"/>
<path d="M490.544 1122.64L466.532 1162.8V1184.96H458.057V1162.89L434.044 1122.64H443.402L462.382 1153.89L481.186 1122.64H490.544Z" fill="white"/>
<path d="M379.308 1184.96L372.863 1166.78H346.114L339.669 1184.96H331.106L353.441 1122.64H365.536L387.871 1184.96H379.308ZM348.762 1159.54H370.215L359.533 1129.35L348.762 1159.54Z" fill="white"/>
<path d="M268.159 1184.96L247.413 1159.8H235.053V1184.96H226.667V1122.64H256.594C268.336 1122.64 273.544 1127.49 273.544 1138.62V1144C273.544 1154.68 268.689 1159.45 257.83 1159.8L278.135 1184.96H268.159ZM235.053 1129.88V1152.56H254.387C262.421 1152.56 265.157 1150.18 265.157 1142.85V1139.76C265.157 1132.35 262.421 1129.88 254.387 1129.88H235.053Z" fill="white"/>
<path d="M157.893 1184.96L137.147 1159.8H124.787V1184.96H116.4V1122.64H146.328C158.069 1122.64 163.278 1127.49 163.278 1138.62V1144C163.278 1154.68 158.422 1159.45 147.564 1159.8L167.869 1184.96H157.893ZM124.787 1129.88V1152.56H144.121C152.154 1152.56 154.891 1150.18 154.891 1142.85V1139.76C154.891 1132.35 152.154 1129.88 144.121 1129.88H124.787Z" fill="white"/>
<path d="M49.0268 1184.96L42.5823 1166.78H15.8329L9.38829 1184.96H0.824951L23.1603 1122.64H35.2549L57.5902 1184.96H49.0268ZM18.4813 1159.54H39.9338L29.2517 1129.35L18.4813 1159.54Z" fill="white"/>
<path d="M624.961 1169.69C629.209 1169.69 630.458 1170.77 630.458 1174.52V1175.35C630.458 1184.76 627.793 1189.84 620.464 1195.5L617.382 1191.26C621.546 1187.43 623.462 1184.51 623.962 1180.18C620.38 1180.01 619.381 1178.85 619.381 1175.35V1174.52C619.381 1170.77 620.547 1169.69 624.794 1169.69H624.961Z" fill="white"/>
<path d="M994.579 1185.8C990.331 1185.8 989.165 1184.71 989.165 1180.97V1180.13C989.165 1176.39 990.331 1175.3 994.579 1175.3H994.745C998.993 1175.3 1000.24 1176.39 1000.24 1180.13V1180.97C1000.24 1184.71 998.993 1185.8 994.745 1185.8H994.745Z" fill="white"/>
</svg>
