<svg width="1000" height="253" viewBox="0 0 1000 253" fill="none" xmlns="http://www.w3.org/2000/svg">
<path d="M0 126.383H56.0094V76.938L80.4456 52.5018H253.152V0.0576172H55.4629L0 54.421V126.383Z" fill="white"/>
<path d="M253.152 126.383H197.142V175.828L172.706 200.264H0V252.708H197.689L253.152 198.345V126.383Z" fill="white"/>
<path d="M359.81 153.81V152.896L368.946 151.836V152.75C368.946 167.977 374.574 173.154 391.629 173.154H410.657C427.553 173.154 433.339 167.977 433.339 152.445V150.471C433.339 138.143 429.234 134.184 414.153 132.052L385.989 127.947C366.961 125.206 360.407 119.115 360.407 102.828V98.8685C360.407 79.2313 369.081 71.1553 390.252 71.1553H411.875C433.035 71.1553 441.72 79.22 441.72 98.564V99.4776L432.584 100.549V99.6355C432.584 84.4085 426.955 79.2312 409.901 79.2312H392.396C375.341 79.2312 369.555 84.555 369.555 99.94V101.158C369.555 113.644 373.514 117.141 388.888 119.431L417.052 123.536C436.238 126.277 442.476 132.515 442.476 148.813V153.539C442.476 173.177 433.802 181.253 412.631 181.253H389.643C368.483 181.253 359.798 173.188 359.798 153.844L359.81 153.81Z" fill="white"/>
<path d="M529.258 179.697L528.502 171.474C525.152 178.016 518.61 181.219 508.256 181.219H487.547C471.564 181.219 463.488 173.606 463.488 158.537V153.213C463.488 138.144 471.248 130.835 487.547 130.835H523.325C525.006 130.835 526.37 130.981 527.284 131.297V116.532C527.284 104.96 521.96 99.9405 509.474 99.9405H491.202C479.02 99.9405 473.392 104.971 473.392 116.228V117.141L464.718 116.228C464.571 115.923 464.571 115.765 464.571 115.156C464.571 100.087 472.636 92.4736 488.776 92.4736H512.068C528.051 92.4736 536.127 100.087 536.127 115.156V164.03L537.187 179.708H529.269L529.258 179.697ZM527.284 157.318V138.595C526.528 138.448 525.31 138.29 523.934 138.29H489.983C477.655 138.29 472.173 143.309 472.173 154.735V157.318C472.173 168.733 477.655 173.764 489.983 173.764H509.474C521.96 173.764 527.284 168.744 527.284 157.318Z" fill="white"/>
<path d="M579.799 101.44V157.16C579.799 168.575 585.281 173.752 597.609 173.752H615.723V181.208H595.172C579.032 181.208 570.967 173.594 570.967 158.525V101.429H549.807V93.9735H570.967V77.5283H579.799V93.9735H615.723V101.429H579.799V101.44Z" fill="white"/>
<path d="M742.706 93.9844L716.978 179.696H705.405L682.723 102.512L660.04 179.696H648.467L622.739 93.9844H631.571L654.254 171.473L676.936 93.9844H688.509L711.192 171.473L733.874 93.9844H742.706Z" fill="white"/>
<path d="M819.893 179.697L819.126 171.474C815.776 178.016 809.234 181.219 798.879 181.219H778.171C762.188 181.219 754.112 173.606 754.112 158.537V153.213C754.112 138.144 761.872 130.835 778.171 130.835H813.949C815.629 130.835 816.994 130.981 817.908 131.297V116.532C817.908 104.96 812.584 99.9405 800.098 99.9405H781.825C769.643 99.9405 764.015 104.971 764.015 116.228V117.141L755.341 116.228C755.195 115.923 755.195 115.765 755.195 115.156C755.195 100.087 763.259 92.4736 779.4 92.4736H802.692C818.675 92.4736 826.751 100.087 826.751 115.156V164.03L827.811 179.708H819.893V179.697ZM817.919 157.318V138.595C817.163 138.448 815.945 138.29 814.569 138.29H780.618C768.29 138.29 762.808 143.309 762.808 154.735V157.318C762.808 168.733 768.29 173.764 780.618 173.764H800.109C812.595 173.764 817.919 168.744 817.919 157.318Z" fill="white"/>
<path d="M916.723 93.9844L884.441 179.696H872.722L840.441 93.9844H849.577L878.655 172.082L907.587 93.9844H916.723Z" fill="white"/>
<path d="M935.911 139.349V157.16C935.911 168.574 941.393 173.751 953.721 173.751H973.358C985.54 173.751 991.168 168.732 991.168 157.464V156.55L999.842 157.464C1000 157.769 1000 157.927 1000 158.524C1000 173.593 991.935 181.207 975.794 181.207H951.285C935.144 181.207 927.079 173.593 927.079 158.524V115.133C927.079 100.064 935.144 92.4502 951.285 92.4502H975.794C991.935 92.4502 1000 100.064 1000 115.133V139.338H935.9L935.911 139.349ZM935.911 116.509V131.883H991.179V116.509C991.179 104.936 985.698 99.9171 973.369 99.9171H953.732C941.404 99.9171 935.922 104.948 935.922 116.509H935.911Z" fill="white"/>
</svg>
