<svg width="1000" height="253" viewBox="0 0 1000 253" fill="none" xmlns="http://www.w3.org/2000/svg">
<path d="M0 126.325H56.0094V76.8804L80.4456 52.4442H253.152V0H55.4629L0 54.3634V126.325Z" fill="#1616E9"/>
<path d="M253.152 126.325H197.142V175.77L172.706 200.206H0V252.65H197.689L253.152 198.287V126.325Z" fill="#1616E9"/>
<path d="M359.81 153.752V152.839L368.946 151.778V152.692C368.946 167.919 374.574 173.096 391.629 173.096H410.657C427.553 173.096 433.339 167.919 433.339 152.388V150.414C433.339 138.085 429.234 134.126 414.153 131.995L385.989 127.889C366.961 125.148 360.407 119.057 360.407 102.77V98.8109C360.407 79.1736 369.081 71.0977 390.252 71.0977H411.875C433.035 71.0977 441.72 79.1623 441.72 98.5064V99.42L432.584 100.492V99.5779C432.584 84.3508 426.955 79.1736 409.901 79.1736H392.396C375.341 79.1736 369.555 84.4974 369.555 99.8824V101.101C369.555 113.587 373.514 117.083 388.888 119.373L417.052 123.479C436.238 126.22 442.476 132.457 442.476 148.756V153.482C442.476 173.119 433.802 181.195 412.631 181.195H389.643C368.483 181.195 359.798 173.13 359.798 153.786L359.81 153.752Z" fill="black"/>
<path d="M529.258 179.639L528.502 171.416C525.152 177.958 518.61 181.162 508.256 181.162H487.547C471.564 181.162 463.488 173.548 463.488 158.479V153.155C463.488 138.086 471.248 130.777 487.547 130.777H523.325C525.006 130.777 526.37 130.924 527.284 131.239V116.475C527.284 104.902 521.96 99.8829 509.474 99.8829H491.202C479.02 99.8829 473.392 104.913 473.392 116.17V117.084L464.718 116.17C464.571 115.866 464.571 115.708 464.571 115.099C464.571 100.03 472.636 92.416 488.776 92.416H512.068C528.051 92.416 536.127 100.03 536.127 115.099V163.972L537.187 179.65H529.269L529.258 179.639ZM527.284 157.261V138.537C526.528 138.39 525.31 138.233 523.934 138.233H489.983C477.655 138.233 472.173 143.252 472.173 154.678V157.261C472.173 168.675 477.655 173.706 489.983 173.706H509.474C521.96 173.706 527.284 168.687 527.284 157.261Z" fill="black"/>
<path d="M579.799 101.383V157.103C579.799 168.517 585.281 173.694 597.609 173.694H615.723V181.15H595.172C579.032 181.15 570.967 173.537 570.967 158.467V101.372H549.807V93.9159H570.967V77.4707H579.799V93.9159H615.723V101.372H579.799V101.383Z" fill="black"/>
<path d="M742.706 93.9268L716.978 179.638H705.405L682.723 102.454L660.04 179.638H648.467L622.739 93.9268H631.571L654.254 171.416L676.936 93.9268H688.509L711.192 171.416L733.874 93.9268H742.706Z" fill="black"/>
<path d="M819.893 179.639L819.126 171.416C815.776 177.958 809.234 181.162 798.879 181.162H778.171C762.188 181.162 754.112 173.548 754.112 158.479V153.155C754.112 138.086 761.872 130.777 778.171 130.777H813.949C815.629 130.777 816.994 130.924 817.908 131.239V116.475C817.908 104.902 812.584 99.8829 800.098 99.8829H781.825C769.643 99.8829 764.015 104.913 764.015 116.17V117.084L755.341 116.17C755.195 115.866 755.195 115.708 755.195 115.099C755.195 100.03 763.259 92.416 779.4 92.416H802.692C818.675 92.416 826.751 100.03 826.751 115.099V163.972L827.811 179.65H819.893V179.639ZM817.919 157.261V138.537C817.163 138.39 815.945 138.233 814.569 138.233H780.618C768.29 138.233 762.808 143.252 762.808 154.678V157.261C762.808 168.675 768.29 173.706 780.618 173.706H800.109C812.595 173.706 817.919 168.687 817.919 157.261Z" fill="black"/>
<path d="M916.723 93.9268L884.441 179.638H872.722L840.441 93.9268H849.577L878.655 172.025L907.587 93.9268H916.723Z" fill="black"/>
<path d="M935.911 139.292V157.102C935.911 168.517 941.393 173.694 953.721 173.694H973.358C985.54 173.694 991.168 168.675 991.168 157.407V156.493L999.842 157.407C1000 157.711 1000 157.869 1000 158.467C1000 173.536 991.935 181.15 975.794 181.15H951.285C935.144 181.15 927.079 173.536 927.079 158.467V115.076C927.079 100.007 935.144 92.3931 951.285 92.3931H975.794C991.935 92.3931 1000 100.007 1000 115.076V139.281H935.9L935.911 139.292ZM935.911 116.452V131.825H991.179V116.452C991.179 104.879 985.698 99.86 973.369 99.86H953.732C941.404 99.86 935.922 104.89 935.922 116.452H935.911Z" fill="black"/>
</svg>
